<svg width="414" height="93" viewBox="0 0 414 93" fill="none" xmlns="http://www.w3.org/2000/svg">
<path d="M170.05 72.4646C169.759 72.4646 169.548 72.4646 169.336 72.4646C163.238 72.4646 157.142 72.4569 151.044 72.4801C150.526 72.4801 150.294 72.3128 150.098 71.8599C146.229 62.9789 142.345 54.1056 138.464 45.2298C138.381 45.0419 138.288 44.8618 138.095 44.7022C138.095 44.9261 138.095 45.15 138.095 45.3739C138.095 54.1082 138.095 62.8451 138.095 71.5794C138.095 72.4646 138.095 72.4672 137.203 72.4672C131.793 72.4672 126.383 72.4595 120.973 72.4801C120.432 72.4801 120.298 72.3308 120.298 71.8007C120.311 50.948 120.311 30.0953 120.298 9.24265C120.298 8.7048 120.447 8.56583 120.981 8.5684C126.455 8.58642 131.93 8.58899 137.404 8.5684C137.984 8.5684 138.111 8.7331 138.108 9.2864C138.09 17.6141 138.095 25.9443 138.095 34.272V34.9514C138.136 34.9617 138.178 34.9694 138.219 34.9797C138.739 33.6621 139.26 32.3419 139.783 31.0243C142.696 23.7157 145.613 16.4097 148.513 9.09596C148.681 8.67649 148.892 8.57098 149.315 8.57098C155.348 8.58384 161.38 8.58642 167.414 8.57098C168.011 8.57098 168.037 8.71766 167.813 9.21949C163.333 19.2559 158.869 29.2976 154.392 39.3366C154.202 39.7638 154.212 40.1061 154.423 40.5358C159.421 50.6907 164.403 60.8558 169.385 71.0184C169.607 71.4739 169.808 71.9371 170.053 72.4698L170.05 72.4646ZM412.41 29.5112C412.421 28.9501 412.302 28.7468 411.683 28.7546C409 28.7932 406.317 28.7854 403.634 28.7674C401.487 28.752 399.327 28.6799 397.275 27.9954C394.502 27.0741 391.69 26.9712 388.837 27.3469C383.873 28.0031 379.749 30.2137 376.648 34.1588C373.888 37.6716 372.748 41.6939 373.37 46.1331C373.872 49.7205 375.493 52.7829 378.037 55.364C378.986 56.3265 378.981 56.7846 377.988 57.7085C377.264 58.3827 376.581 59.0853 375.97 59.8624C374.609 61.5995 373.638 63.4859 373.573 65.7556C373.501 68.3651 374.589 70.5191 376.156 72.4955C376.803 73.3113 376.811 73.2959 376.004 73.8955C373.738 75.5785 371.921 77.5137 371.715 80.5581C371.516 83.4944 372.272 86.019 374.493 88.0211C376.568 89.892 379.092 90.8931 381.746 91.588C386.198 92.7537 390.752 93.0523 395.329 92.9879C399.448 92.9313 403.255 91.7604 406.559 89.277C411.784 85.3499 414.539 80.2082 413.913 73.5481C413.645 70.6812 412.302 68.3394 410.054 66.5457C407.204 64.2733 403.851 63.4061 400.278 63.3469C396.631 63.2851 392.979 63.3315 389.332 63.3366C388.631 63.3366 387.953 63.2568 387.375 62.8296C386.917 62.4899 386.638 62.0267 386.808 61.44C386.981 60.8429 387.432 60.5393 388.051 60.5058C388.242 60.4955 388.44 60.4929 388.628 60.5264C391.033 60.9433 393.414 60.7657 395.778 60.2433C404.784 58.254 411.085 49.7308 409.176 40.734C409.085 40.3042 409.255 40.2167 409.639 40.227C410.369 40.2476 411.101 40.209 411.828 40.2424C412.284 40.263 412.413 40.1061 412.408 39.6608C412.384 37.9495 412.397 36.2356 412.397 34.5242C412.397 32.8541 412.377 31.1839 412.41 29.5163V29.5112ZM388.736 39.6119C390.244 37.862 392.664 37.8877 394.051 39.7123C395.835 42.0567 395.951 44.6019 394.685 47.1882C394.015 48.5573 392.93 49.5583 391.267 49.4966C389.474 49.4297 388.476 48.2382 387.803 46.743C387.399 45.8423 387.213 44.8721 387.241 43.871C387.265 42.2858 387.68 40.8369 388.734 39.6119H388.736ZM396.819 75.7329C398.353 76.8009 398.538 78.4942 397.242 79.8659C396.072 81.1037 394.546 81.6596 392.907 81.9246C391.332 82.1794 389.785 82.0636 388.301 81.4434C388.004 81.3199 387.713 81.1732 387.448 80.9956C385.819 79.9096 385.623 78.1134 387.015 76.7366C388.608 75.1642 390.628 74.701 392.719 74.616C394.219 74.6778 395.608 74.8914 396.817 75.7329H396.819ZM183.755 45.4177C182.77 43.5416 181.778 41.6707 180.819 39.7818C180.62 39.3906 180.378 39.2954 179.968 39.2954C174.602 39.3083 169.233 39.3031 163.867 39.3031C163.104 39.3031 163.101 39.3057 163.431 39.9671C168.751 50.6083 174.076 61.247 179.388 71.8933C179.597 72.3102 179.819 72.4878 180.306 72.4827C183.226 72.4569 186.146 72.4595 189.064 72.4827C189.541 72.4852 189.781 72.3385 189.992 71.9139C191.572 68.7331 193.185 65.5678 194.778 62.3947C205.08 41.8714 215.377 21.3456 225.674 0.81974C225.775 0.619011 225.952 0.433722 225.898 0.153216C225.793 0.145495 225.69 0.130055 225.584 0.130055C219.743 0.130055 213.906 0.132628 208.065 0.117188C207.66 0.117188 207.511 0.297329 207.354 0.608717C205.841 3.60936 204.31 6.59971 202.797 9.59778C198.052 18.996 193.314 28.3994 188.572 37.7977C187.157 40.6027 185.729 43.4052 184.257 46.3132C184.043 45.9323 183.894 45.6776 183.755 45.4151V45.4177ZM340.894 29.5214C340.922 28.9167 340.77 28.7262 340.128 28.7288C335.383 28.7571 330.638 28.7546 325.896 28.7314C325.341 28.7314 325.169 28.8523 325.171 29.4339C325.189 43.5416 325.189 57.6493 325.171 71.7595C325.171 72.3514 325.357 72.4543 325.898 72.4518C330.986 72.4312 336.074 72.4389 341.162 72.4389C341.717 72.4389 341.994 72.1601 341.994 71.6025C341.994 62.8245 342 54.0464 341.987 45.271C341.987 44.5916 342.134 44.0048 342.585 43.4979C343.732 42.2111 345.147 41.3336 346.832 40.999C348.68 40.631 349.783 41.2615 350.206 42.7927C350.348 43.31 350.394 43.8401 350.394 44.378C350.389 53.4983 350.397 62.6186 350.379 71.7389C350.379 72.3308 350.539 72.4801 351.124 72.4775C356.147 72.4543 361.171 72.4518 366.194 72.4775C366.833 72.4801 367.016 72.3411 367.016 71.6746C366.99 62.1683 366.993 52.6645 367.003 43.1582C367.006 40.2759 366.467 37.4991 365.333 34.8562C362.98 29.3748 359.25 27.3443 353.781 27.2903C350.348 27.2568 347.229 28.456 344.34 30.2652C343.144 31.0115 342.03 31.8659 340.883 32.8824C340.883 31.6806 340.847 30.5971 340.896 29.5163L340.894 29.5214ZM253.16 47.008C252.237 40.9579 249.593 35.829 244.85 31.8916C240.435 28.227 235.319 26.6263 229.594 27.2697C224.937 27.7921 220.911 29.7839 217.617 33.0831C212.027 38.6855 209.784 45.5386 210.555 53.3336C211.137 59.2191 213.527 64.3377 217.883 68.4166C222.862 73.0771 228.775 74.9351 235.528 73.7951C239.685 73.0951 243.255 71.1213 246.229 68.1618C251.077 63.3418 253.317 57.4228 253.423 50.6521C253.433 49.4245 253.343 48.2124 253.16 47.0029V47.008ZM235.35 58.3312C234.945 58.8871 234.453 59.3683 233.865 59.7389C232.6 60.5367 231.319 60.5444 230.04 59.7852C228.641 58.954 227.837 57.6364 227.282 56.1798C225.806 52.2888 225.855 48.4029 227.517 44.5684C227.919 43.6394 228.504 42.8236 229.252 42.1211C230.796 40.6696 232.834 40.6182 234.414 42.0181C236.121 43.5313 236.85 45.5463 237.283 47.6977C237.481 48.6834 237.6 49.6844 237.559 50.6958C237.502 53.434 237.002 56.0512 235.347 58.3287L235.35 58.3312ZM266.748 16.209C265.942 16.209 265.906 16.245 265.906 17.0325C265.906 20.7151 265.89 24.3951 265.918 28.0777C265.924 28.6568 265.753 28.7829 265.197 28.7777C262.534 28.7468 259.874 28.7829 257.212 28.7494C256.622 28.7417 256.495 28.9373 256.498 29.4751C256.516 33.8191 256.513 38.1657 256.498 42.5097C256.498 42.9935 256.647 43.135 257.122 43.1299C259.075 43.1067 261.029 43.1144 262.98 43.1247C264.073 43.1299 263.96 42.9626 263.965 44.0614C263.978 47.3992 263.944 50.7396 263.962 54.0773C263.972 56.342 264.027 58.6066 264.606 60.8198C265.413 63.8976 266.988 66.5457 269.267 68.7409C272.656 72.004 276.826 73.4065 281.46 73.6047C285.252 73.7668 288.925 73.09 292.554 72.0606C293.059 71.9165 293.208 71.6926 293.206 71.1702C293.183 66.9317 293.193 62.6932 293.193 58.4573C293.193 57.2967 293.203 57.3224 292.079 57.7085C289.703 58.5217 287.314 59.268 284.739 58.9823C282.904 58.7764 281.631 57.6724 281.27 55.889C281.172 55.4104 281.118 54.9137 281.115 54.4247C281.1 50.8708 281.112 47.3194 281.089 43.7655C281.087 43.2045 281.262 43.0475 281.826 43.0527C285.412 43.0784 288.994 43.0578 292.58 43.0758C293.036 43.0758 293.219 42.9883 293.216 42.4839C293.198 38.1605 293.196 33.8371 293.216 29.5137C293.219 28.8961 293.069 28.6671 292.389 28.6748C288.847 28.7134 285.306 28.6799 281.765 28.7057C281.216 28.7082 281.089 28.541 281.092 28.0186C281.112 24.3154 281.092 20.6122 281.118 16.909C281.123 16.3274 280.953 16.1987 280.396 16.2064C278.12 16.2373 275.847 16.2193 273.571 16.2193C271.295 16.2193 269.022 16.2193 266.746 16.2193L266.748 16.209ZM76.2183 72.4235C76.4348 72.4389 76.5404 72.4543 76.6461 72.4543C88.6699 72.4543 100.691 72.4543 112.715 72.4672C113.256 72.4672 113.285 72.233 113.285 71.8136C113.274 67.5313 113.269 63.2491 113.292 58.9695C113.295 58.4136 113.112 58.3055 112.596 58.3081C108.411 58.3287 104.222 58.3184 100.036 58.3184C99.8148 58.3184 99.5957 58.2978 99.3173 58.2849C99.4591 57.9915 99.5571 57.7779 99.6602 57.5721C104.367 48.1764 109.07 38.7782 113.785 29.3876C114.014 28.9321 114.071 28.7546 113.431 28.7546C102.225 28.77 91.018 28.77 79.8112 28.7546C79.2828 28.7546 79.1772 28.9296 79.1798 29.4134C79.1952 33.5232 79.1978 37.6355 79.1798 41.7453C79.1772 42.2755 79.3189 42.4325 79.8602 42.4299C83.5949 42.4067 87.3322 42.417 91.0669 42.417H91.8995C86.6389 52.4844 81.4428 62.4307 76.2208 72.426L76.2183 72.4235ZM300.626 71.7647C300.626 72.3282 300.768 72.4801 301.338 72.4775C306.423 72.4543 311.508 72.4646 316.596 72.4646C317.686 72.4646 317.813 72.3385 317.813 71.2448C317.813 57.4846 317.813 43.7243 317.813 29.9667C317.813 28.8832 317.679 28.7468 316.588 28.7468C311.524 28.7468 306.459 28.7597 301.394 28.7314C300.755 28.7288 300.624 28.9218 300.626 29.524C300.647 36.5418 300.639 43.5622 300.639 50.58C300.639 57.5978 300.647 64.7031 300.626 71.7647ZM303.732 9.00332C299.142 11.8882 298.185 17.9692 301.709 21.8912C304.995 25.5455 310.704 26.2326 314.777 23.461C318.661 20.818 319.87 16.088 317.56 12.1326C315.722 8.9853 312.812 7.57248 309.513 7.43351C307.248 7.46439 305.41 7.95077 303.732 9.00332Z" fill="#905BFD"/>
<path d="M60.5004 53.2602C60.503 50.6738 60.5056 48.0901 60.5004 45.5038C60.4927 42.5546 60.4643 39.608 60.4669 36.6588C60.4669 33.8177 60.5623 30.9766 60.4411 28.1355C60.4643 28.012 60.5056 27.8885 60.5056 27.765C60.5056 21.5012 60.5546 15.2348 60.4875 8.97105C60.4411 4.72486 57.9049 1.49775 53.9125 0.344843C53.4666 0.21617 53.0129 0.113232 52.5619 0H7.98751C6.89725 0.277933 5.78895 0.491529 4.78632 1.04739C2.17279 2.48595 0.559306 4.63221 0.097943 7.60198C0.0850558 7.68175 0.0335068 7.75381 0 7.83101V64.6116C0.0309294 64.6657 0.0850558 64.7172 0.0927881 64.7738C0.683024 69.1538 4.71673 72.3938 9.35098 72.368C23.2744 72.2908 37.2003 72.3397 51.1237 72.3397C51.4252 72.3397 51.7242 72.3397 52.0258 72.3294C55.9615 72.1879 59.539 69.1384 60.3097 65.291C60.5778 63.9528 60.485 62.6069 60.4824 61.2636C60.4772 58.8265 60.4566 56.392 60.4411 53.955C60.5546 53.7311 60.503 53.4918 60.503 53.2602H60.5004ZM44.0408 55.8645C39.3963 55.8748 34.7491 55.8568 30.1046 55.8465C28.1122 55.8465 26.1199 55.8465 24.1249 55.8465C21.5423 55.8542 18.9571 55.8825 16.3745 55.8593C15.5111 55.8516 14.9054 55.2546 14.3023 54.7167C14.2327 54.5392 14.1863 54.3487 14.0909 54.1866C13.1012 52.5422 14.7636 50.4371 16.4235 50.4705C18.0885 50.504 19.7561 50.4731 21.4237 50.4705C20.3515 48.5739 19.5809 46.528 18.5396 44.6159C17.0472 41.8726 15.9157 38.9569 14.4208 36.2162C14.194 36.2162 13.9672 36.2213 13.7378 36.2265C13.9646 36.2213 14.194 36.2162 14.4208 36.2162C14.2172 35.7736 14.0162 35.3309 13.81 34.8831C14.0136 34.703 14.2352 34.7802 14.4337 34.7802C17.2869 34.7751 20.1402 34.7853 22.9934 34.7648C23.4419 34.7622 23.6739 34.8986 23.8723 35.3078C24.7538 37.1143 25.6765 38.9003 26.5864 40.6914C26.6817 40.8767 26.7874 41.0568 26.9472 41.3476C27.2771 40.73 27.5735 40.2025 27.8442 39.662C29.1509 37.068 30.5273 34.51 31.8289 31.9108C33.5068 28.5602 35.3162 25.279 37.0018 21.931C37.2776 21.3854 37.6539 20.8861 37.8807 20.3097C38.0302 20.1578 38.2184 20.1527 38.4143 20.1527C41.5433 20.1553 44.6749 20.1553 47.8039 20.1578C47.8658 20.1578 47.9251 20.181 48.0823 20.2093C46.8838 22.5717 45.7007 24.9033 44.5177 27.2374C42.93 30.4028 41.3474 33.5707 39.7546 36.7334C37.5663 41.0826 35.3729 45.4291 33.1846 49.7783C33.0712 50.0047 32.9707 50.2415 32.865 50.4731C36.525 50.4731 40.185 50.486 43.845 50.4731C45.6286 50.4654 47.1054 52.1845 46.5075 53.9473C46.6698 53.937 46.8245 53.9267 46.9791 53.9293C46.8245 53.9293 46.6698 53.937 46.5075 53.9473C46.1157 55.0693 45.1595 55.8593 44.0383 55.8619L44.0408 55.8645Z" fill="#905BFD"/>
</svg>
